<svg xmlns="http://www.w3.org/2000/svg" version="1.1" xmlns:xlink="http://www.w3.org/1999/xlink" width="15vw" height="15vh" x="0" y="0" viewBox="0 0 38 60" style="enable-background:new 0 0 512 512" xml:space="preserve" class=""><g><g fill="none" fill-rule="nonzero"><path fill="#02a9f4" d="M19 14v4a3 3 0 0 0-3 3v6H1v-6A16 16 0 0 1 14.92 5.13l-1.5 2.17a2.358 2.358 0 0 0 1.91 3.7H17v2a1 1 0 0 0 1 1z" opacity="0" data-original="#02a9f4" class=""></path><path fill="#0377bc" d="M18 14a1 1 0 0 1-1-1v-2h-1.67a2.358 2.358 0 0 1-1.91-3.7l1.5-2.17c-1.25.167-2.474.482-3.649.938L10.42 7.3a2.358 2.358 0 0 0 1.91 3.7H14v2a1 1 0 0 0 1 1h1v4a3 3 0 0 0-3 3v6h3v-6a3 3 0 0 1 3-3v-4z" opacity="0" data-original="#0377bc" class=""></path><path fill="#02a9f4" d="M37 21v6H22v-6a3 3 0 0 0-3-3v-4h1a1 1 0 0 0 1-1v-2h1.67a2.358 2.358 0 0 0 1.91-3.7l-1.5-2.17A16 16 0 0 1 37 21z" opacity="0" data-original="#02a9f4" class=""></path><path fill="#0377bc" d="m23.08 5.13.649.938A15.987 15.987 0 0 1 34 21v6h3v-6A16 16 0 0 0 23.08 5.13z" opacity="0" data-original="#0377bc" class=""></path><path fill="#02a9f4" d="M37 27v16c0 8.837-7.163 16-16 16h-4C8.163 59 1 51.837 1 43V27h15a3 3 0 0 0 6 0z" opacity="0" data-original="#02a9f4" class=""></path><path fill="#0377bc" d="M16 30a2.974 2.974 0 0 0 1.5-.415A2.982 2.982 0 0 1 16 27h-3a3 3 0 0 0 3 3zM34 27v16c0 8.837-7.163 16-16 16h3c8.837 0 16-7.163 16-16V27z" opacity="0" data-original="#0377bc" class=""></path><path fill="#02a9f4" d="M22 21v6a3 3 0 0 1-6 0v-6a3 3 0 0 1 6 0z" opacity="0" data-original="#f5f5f5" class=""></path><path fill="#0377bc" d="M21.12 18.88a2.965 2.965 0 0 0-3.623-.464c.227.127.436.283.623.464.563.562.88 1.324.88 2.12v6a2.982 2.982 0 0 1-1.5 2.585A2.982 2.982 0 0 0 22 27v-6c0-.796-.317-1.558-.88-2.12z" opacity="0" data-original="#cfd8dc" class=""></path><path fill="#34cccd" d="M22.67 11H21v2a1 1 0 0 1-1 1h-2a1 1 0 0 1-1-1v-2h-1.67a2.358 2.358 0 0 1-1.91-3.7l1.5-2.17L17.1 2a2.308 2.308 0 0 1 3.8 0l2.18 3.13 1.5 2.17a2.358 2.358 0 0 1-1.91 3.7z" opacity="1" data-original="#f44335" class=""></path><path fill="#34cccd" d="M21 11h1.67a2.358 2.358 0 0 0 1.91-3.7l-1.5-2.17L20.9 2a2.308 2.308 0 0 0-3.4-.443c.152.13.286.279.4.443l2.18 3.13 1.5 2.17a2.377 2.377 0 0 1-.925 3.484z" opacity="1" data-original="#c81e1e" class=""></path><path fill="#34cccd" d="M22.67 37H21v-2a1 1 0 0 0-1-1h-2a1 1 0 0 0-1 1v2h-1.67a2.358 2.358 0 0 0-1.91 3.7L17.1 46a2.308 2.308 0 0 0 3.8 0l3.68-5.3a2.358 2.358 0 0 0-1.91-3.7z" opacity="1" data-original="#f44335" class=""></path><path fill="#34cccd" d="M20.757 37.268a2.376 2.376 0 0 1 .823 3.432L17.9 46a2.337 2.337 0 0 1-.4.443A2.308 2.308 0 0 0 20.9 46l3.68-5.3a2.358 2.358 0 0 0-1.91-3.7H21z" opacity="1" data-original="#c81e1e" class=""></path><g fill="#000"><path d="M17 60h4c9.385-.01 16.99-7.615 17-17V21A17.025 17.025 0 0 0 23.657 4.218l-1.934-2.787a3.309 3.309 0 0 0-5.445 0l-1.935 2.787A17.025 17.025 0 0 0 0 21v22c.01 9.385 7.615 16.99 17 17zm19-39v5H23v-5a4 4 0 0 0-3-3.858V15a2 2 0 0 0 2-2v-1h.67a3.314 3.314 0 0 0 2.936-1.78 3.375 3.375 0 0 0-.2-3.491l-.058-.083A15.035 15.035 0 0 1 36 21zm-17-2a2 2 0 0 1 2 2v6a2 2 0 1 1-4 0v-6a2 2 0 0 1 2-2zM17.922 2.569a1.309 1.309 0 0 1 2.157 0l3.677 5.3c.293.42.325.97.081 1.422A1.3 1.3 0 0 1 22.67 10H21a1 1 0 0 0-1 1v2h-2v-2a1 1 0 0 0-1-1h-1.67a1.3 1.3 0 0 1-1.167-.712 1.356 1.356 0 0 1 .078-1.418zm-5.265 4.077-.061.088a3.372 3.372 0 0 0-.2 3.486A3.314 3.314 0 0 0 15.33 12H16v1a2 2 0 0 0 2 2v2.142A4 4 0 0 0 15 21v5H2v-5A15.036 15.036 0 0 1 12.657 6.646zM2 28h13.142a3.981 3.981 0 0 0 7.716 0H36v15c-.01 8.28-6.72 14.99-15 15h-4c-8.28-.01-14.99-6.72-15-15z" fill="#000000" opacity="1" data-original="#000000" class=""></path><path d="M16.277 46.569a3.309 3.309 0 0 0 5.445 0l3.682-5.3a3.372 3.372 0 0 0 .2-3.486A3.314 3.314 0 0 0 22.67 36H22v-1a2 2 0 0 0-2-2h-2a2 2 0 0 0-2 2v1h-.67a3.314 3.314 0 0 0-2.936 1.78 3.375 3.375 0 0 0 .205 3.491zm-2.114-7.857A1.3 1.3 0 0 1 15.33 38H17a1 1 0 0 0 1-1v-2h2v2a1 1 0 0 0 1 1h1.67a1.3 1.3 0 0 1 1.167.712c.243.45.213.998-.078 1.418l-3.681 5.3a1.346 1.346 0 0 1-2.157 0l-3.677-5.3a1.358 1.358 0 0 1-.081-1.418z" fill="#000000" opacity="1" data-original="#000000" class=""></path></g></g></g></svg>
