<svg
  height="{{SIZE}}"
  width="{{SIZE}}"
  id="mapaventura-logo-svg"
  xmlns="http://www.w3.org/2000/svg"
  viewBox="0 0 2000 2000">
  <defs>
    <style>
    .main-logo-details-svg{% if override_color %}-override{% endif %} {
      fill: {{ foreground_color }};
      stroke: #00000000;
    }
    .main-logo-contour-svg{% if override_color %}-override{% endif %} {
      fill: {% if override_color %} {{ override_color }} {% else %} {{ foreground_color }} {% endif %};
      stroke: #00000000;
    }
    </style>
  </defs>
  <path
    class="main-logo-contour-svg{% if override_color %}'-override'{% endif %}"
    d="M1.4,1005.94V994.06c.24-2.14.67-4.27.7-6.42A983.56,983.56,0,0,1,17.82,826c26.81-147.84,85-282.41,171.22-405.11,29.06-41.36,61.75-79.76,97-115.95a1001.5,1001.5,0,0,1,114-100.23c40.34-30.43,83.1-57,127.38-81.3s91.14-43.55,138.21-61.36c101-38.23,206.13-57.47,314.16-60.37,103.83-2.78,205.75,10,305,40.42,224.08,68.57,405.33,197.1,538.46,390.75,127.38,185.28,184.28,391.25,175.49,615.63-3.1,79-16.39,156.49-38.62,232.24-45.21,154.08-122.08,290.61-233.36,406.53q-268.15,279.33-654.9,311c-76.42,6.26-152.63,2.65-228.36-9.44a1001.14,1001.14,0,0,1-285.75-91.12C299,1770.32,106.64,1534.15,34.62,1255.09A1016.77,1016.77,0,0,1,2.1,1012.31C2.07,1010.19,1.64,1008.06,1.4,1005.94Zm56.3,126c30.28-13.52,57.62-28.43,82.74-47.24,25.48-19.1,50.52-38.83,76.56-57.13,40.64-28.54,85.73-46.3,135.25-52.15,41.17-4.86,81.22,1.59,120.8,12.34,33.59,9.12,62.82,26.77,90.14,47.65,47,35.9,96.91,65.24,154.4,82.24,67.37,19.92,135,33.25,205.59,27.4,48.07-4,94.47-14.44,136.64-37.93,37.6-20.94,74-44.17,110.09-67.65,23.5-15.29,45.5-32.89,68.22-49.39,7.42-5.38,14.46-11.65,22.6-15.61A485.75,485.75,0,0,1,1354,940c24.55-6.25,49.23-12,74.9-10.19,15.49,1.09,25.95,8.81,29.14,24a105.11,105.11,0,0,1,1.8,31.15c-3.56,37.4-7.88,74.72-12.3,112-4.3,36.29-15.57,70.12-36.93,100.18l-16.37,23.07c3.08-1,5.08-1.71,7.07-2.41,38.64-13.57,77.93-24.78,118.28-32,26.16-4.71,37.25,2.41,42.11,28.39a212.9,212.9,0,0,1,3.34,38.32c.1,30.07-.74,60.14-1.17,90.21a28.78,28.78,0,0,0,.36,7.08c6.76,28.59,3.83,57-4.76,84.32a544.16,544.16,0,0,1-64.12,135.07c-15.61,23.89-32.47,47.33-60,59.66-9.72,4.35-18.7,10.54-28.67,14-35.52,12.49-72.15,20.58-109.47,25.62-13.5,1.83-27,3.89-40.46,5.85-6.35.93-9.69,5-10.8,11-1.73,9.32-4.31,18.64-4.68,28-.91,23.5-.46,47-1.17,70.55-.58,19.14-1.06,38.38-3.35,57.36-3.42,28.2-16.14,53.1-30.79,77-1.71,2.78-3.39,5.58-5.2,8.56a6.06,6.06,0,0,0,1.75.27c23.54-6,47.11-11.87,70.57-18.16,1.92-.52,4-3.6,4.48-5.8q6.4-32.58,12.2-65.27c5.53-30.91,17-58.65,40.61-80.53,23-21.29,48.18-39.79,74-57.43a92.7,92.7,0,0,1,15.17-8c27.39-11.94,56.08-18.92,85.72-22.3,12.16-1.39,15.81-4.76,17.19-16.83,1.54-13.35,3.11-26.74,3.59-40.15,1.41-39.5,8.2-77.55,24.47-114,19.29-43.24,51.17-72.32,94.44-90.05,29.76-12.2,60.92-18.08,92.68-21.34,22-2.25,43.92-1.31,65.36,4.4,12.68,3.38,17.4,9.08,17.46,22,.08,20.34-.83,40.68-1.4,61-.09,3.12-.6,6.23-.92,9.35l2.24.73c14.56-28.45,29.18-56.87,43.54-85.42.74-1.47-.17-4.47-1.29-6.08-14.34-20.51-26.74-42-34.17-66.08-6.91-22.37-.42-38.3,19.36-50.66,13.35-8.35,18.36-1.67,21.22,8.32,1.9,6.61,2.6,13.57,3.74,20.39q4.27,25.54,8.47,51.11l1.84,0c74.08-190.86,89-385.82,40.38-584.18l-116.15-5.38c-.09.58-.17,1.16-.25,1.74,1.25.84,2.49,1.7,3.76,2.53,39.51,25.8,68.82,59.44,82.61,105.54,11.73,39.23,12.64,79,8,119.27-8.42,72.65-57.46,129.38-128.62,146.45-25.86,6.2-52.6,8.73-78.89,13.23-34.9,6-67.38,17.28-92.93,43.38-1,1-2,2.23-3.2,2.59-3.78,1.1-8.52,3.57-11.26,2.22s-4.52-6.65-4.66-10.31c-.34-8.46.62-17,1-25.48.5-13.16-2.11-25.42-9.47-36.68-6.16-9.43-11.68-19.27-17.33-29-11.71-20.2-22.76-40.73-30-63-14.53-45-12.49-90.46-3.94-136.09,2-10.75,4.91-21.35,7.57-32.74-7.39.48-13.87,1.08-20.36,1.28-40.76,1.24-81.33,4.19-121.66,10.66-55.76,8.94-110,23-160.3,49-42.62,22.09-84.88,45-126.21,69.41-93.64,55.32-193.91,80.12-302.6,70.71q-107.51-9.32-193.32-74c-24.14-18.23-47.54-37.47-71-56.61-45.56-37.2-97.85-48.08-154.88-39.5A341.44,341.44,0,0,0,260.64,942.4c-35.4,20.1-70.33,41.05-105.64,61.33-31.76,18.24-65,33.46-99.14,46.61-2.53,1-5.22,1.44-4.85,5.44C53.32,1080.76,55.43,1105.76,57.7,1131.9ZM85.35,742.15c3.77-1.59,6.77-2.52,9.43-4,30.19-17.26,60.59-34.17,90.4-52.06,28.33-17,56.67-33.79,87.24-46.6C314.09,622,357.49,615.28,401.93,622c65.44,9.81,126.3,33.49,182.88,67.63,24,14.5,47,30.69,70.4,46.24C690,759,726.61,778.5,767.42,788.33c51,12.3,102,10.52,152.4-4.27,54.87-16.09,103.69-42.34,146.26-81.38,40.65-37.29,83.64-72,125.86-107.59,33.43-28.15,67.33-55.76,100.89-83.77,19.45-16.22,38.33-33.13,58.05-49,17.35-14,35.61-26.8,53.24-40.44A91.69,91.69,0,0,0,1417,409c1.3-1.51,1.1-4.3,1.59-6.51-2.07-.21-4.17-.8-6.2-.58-8.45.9-16.85,2.59-25.32,3-63.23,3.1-126.44,7-189.71,8.7-110,3-220,4.62-330,6.93C760,422.8,652.59,421,545.28,427c-32.84,1.83-65.94-.5-98.9-1.43-38.37-1.1-76.66.08-114.92,2.72-.59,0-1.18.12-1.78.15-29.44,1.48-58.88,2.9-88.3,4.59-2.09.12-4.69,1.87-6,3.64-9.19,12.63-18.11,25.46-27.08,38.25-.86,1.23-1.48,2.62-2.48,4.41,4.33,0,8,.07,11.7,0,22.55-.53,45.1-1.71,67.64-1.37,9.87.15,19.82,2.88,29.49,5.41,5.36,1.4,8.89,5.79,9.09,11.94.21,6.42-1.67,11.9-7.89,14.67-5,2.22-10.17,4.6-15.51,5.52-17.37,3-34.68.89-51.94-1.73-18.14-2.76-36.3-5.39-54.45-8.12-3.82-.58-6.13.85-8,4.31-8.51,15.4-17.28,30.64-25.93,46-.73,1.3-1.19,2.76-2.07,4.8,4.8-.24,8.9-.57,13-.64,14.81-.26,29.64-1,44.42-.44,11.42.43,22.18,4.19,30.86,12.15s8.27,17.74-1.75,24.26c-4.37,2.84-9.59,5.5-14.63,6-14.52,1.3-29.15,1.94-43.72,1.88-14.82-.06-29.63-1.35-44.45-1.87-1.85-.06-4.76.78-5.46,2.11-3.26,6.23-5.91,12.77-8.79,19.22,2.79,2.52,5.18,4.59,7.46,6.77C140,635,145.34,639.8,150.15,645c7,7.65,6.08,14.72-2.87,20.08-4.88,2.92-10.3,5-15.59,7.13q-10.95,4.5-22.08,8.57c-4.44,1.62-6.94,4.49-8.32,9.07-4.52,14.93-9.41,29.75-14.11,44.64C86.49,736.7,86.1,739,85.35,742.15Zm212.8-382.64c26.15,0,50.89-1,75.51.21,50.36,2.57,100.58,7.81,151.13,6.46q79.82-2.13,159.63-3.53c39.57-.73,79.14-.85,118.7-1.56,24.13-.44,48.25-2,72.37-2.14,47.29-.2,94.58.61,141.87.44,78.54-.27,157.09-1.74,235.63-1.27,67.48.41,134.9,1.39,202.33-2.6,21.64-1.28,40-6.91,56.58-21.6a320.29,320.29,0,0,1,67.62-45.81c9.78-4.95,20.08-8.87,30.16-13.26a2.5,2.5,0,0,0-.43-1c-1.16-1.08-2.34-2.13-3.57-3.12-172.53-140.28-370.56-211-592.27-217-66.28-1.79-131.87,5-197.12,16.53-52.84,9.32-103.49,26.42-154.75,41.43-135.72,54.06-255,132.6-355.42,239.09C303.71,353.4,301.37,356,298.15,359.51Zm793,1296.7c6.91-1.15,12.94-2,18.87-3.2,14.28-3,28.57-6,42.77-9.39,8.21-1.95,11.58-8.13,10.87-16-.9-10-2.22-20-4.06-29.92-5.31-28.54-13-56.81-16-85.57-4-37.34-2.12-74.68,16.88-108.92,10.82-19.51,21.41-39.16,32.19-58.69,4.77-8.65,9.93-17.09,14.61-25.79,12.67-23.52,19.45-48.36,11.93-74.78-4.52-15.88-11.08-31.24-17.6-46.47A265.45,265.45,0,0,1,1180.12,1083c.12-4,0-8,0-12.4a19.44,19.44,0,0,0-2,1.17c-3.87,3.08-7.66,6.27-11.6,9.26-41.3,31.33-82.56,62.18-133.88,76.67C986.3,1170.8,940,1183,891.85,1186.79c-33.25,2.62-66.43,1.72-99.57-1.53-40.92-4-80.81-12.41-119.08-27.83-32.4-13-62.24-31-92.16-48.7-41-24.34-83.34-45.84-127.87-63.27-51.49-20.16-102.58-20.1-154-1.29-32.42,11.85-61.18,30.35-88.92,50.48-46,33.36-88.66,71.51-141.77,96.15q7.22,29.81,15,61.8c2.76-1.69,4.63-2.75,6.41-3.93,19.15-12.63,37.85-26,57.51-37.78,44.93-26.89,89.58-54.42,135.74-79.06,56.48-30.14,114.45-30,172.79-2.67,40.35,18.93,79.79,39.33,116.77,64.2,59.56,40.06,124.83,65,195.75,75.61,42.33,6.31,83.61,2.5,123.77-12.25,30.64-11.25,58.55-27.71,85.42-46,19.21-13.07,39.3-24.28,61.63-31.06a10.63,10.63,0,0,1,6.16.49c1.15.39,2.67,2.29,2.5,3.25s-1.95,2.1-3.23,2.76c-3,1.58-6.73,2.31-9.19,4.48-13.79,12.17-27.64,24.32-40.81,37.14-17.84,17.35-34.09,36.45-52.79,52.76-40.39,35.23-81.37,69.83-123.13,103.42-36.26,29.15-69,61-92.37,101.69a40.31,40.31,0,0,0-4.85,29.52c1.17,5.77,2.48,11.81,5.24,16.9,7.06,13,14.07,26.16,22.69,38.12,28,38.84,52.2,79.66,68.35,124.93,15.08,42.26,20.69,85.59,9.53,129.38-5.57,21.85-15.62,42.55-23.7,63.75-4.55,11.93-9.22,23.83-14,36.06,2.06.55,3.18.89,4.32,1.14a976.2,976.2,0,0,0,137.14,20.37c4.27.33,4.33-2.11,4.86-4.91a359.56,359.56,0,0,0,5.56-80.94c-1.23-31.55-5.53-62.69-17.63-92.13-3.62-8.82-8.09-17.83-14.25-25-17.45-20.21-36.14-39.34-54-59.17-15.66-17.35-31.36-35-39.67-57.23-24-64.23-16.1-125.12,21.92-181.84,10.54-15.72,23-30.25,35.23-44.73,24.34-28.7,49.86-56.29,80.42-78.7a53.84,53.84,0,0,0,6.62-5.83c6.07-6.21,13.1-8.5,20.91-4.28,7,3.76,14,8.59,19,14.62,31.2,37.73,59.39,77.51,80.55,121.93,13.52,28.38,24.37,57.23,25.39,89.37.93,29.2-4.25,57.48-9.2,85.91C1094.9,1633.78,1093.13,1644.63,1091.18,1656.21ZM48.93,1001.88l1.85,1.21c12.18-6,24.73-11.37,36.47-18.15,33.56-19.36,66.78-39.29,100.13-59,38.47-22.76,77.49-44.41,119.75-59.59,39.05-14,78.78-19.64,120-11.62,46.72,9.07,89.06,28.07,128.51,54.32Q593.93,934.5,633,958.8c30.12,18.68,61.55,34.89,95.33,46.05a468.66,468.66,0,0,0,108.94,22.22c26.51,2.18,52.79,2.35,79.15-2.7,55.79-10.7,108.16-30.77,158.82-55.87,49.48-24.52,96.6-53.17,143.4-82.35,41.77-26,86.3-45.25,134.73-55.23,36.29-7.47,73-8.2,109.8-9,21.35-.48,42.77-.8,64-2.85,53.17-5.15,103.63-20.66,152.68-41.48,32.34-13.72,64.74-27.5,97.86-39.1,41.42-14.51,84-24,128.53-20.1.29,0,.61-.36,1.48-.91l-13.53-38.92c-22.92,3.23-44.81,6.45-66.75,9.3a58,58,0,0,1-15.23-.13c-3.66-.51-5.35-3.11-2.79-7,11.52-17.37,25.74-32,43.49-43.05,6.49-4.06,12.65-8.65,19.85-13.6-13-26.16-25.82-52.1-39.44-79.6-10.57,9-20.61,16.38-29.29,25.13-20.32,20.52-39.76,41.9-60,62.53-22.92,23.39-47.4,44.82-77.08,59.61q-33.4,16.66-66.35,34.27a329.87,329.87,0,0,1-128.28,37.5c-35,3-70.36,2.24-105.53,3.79-22.09,1-44.35,1.65-66.13,5-49.24,7.63-94.91,24.52-135.64,54.44-16.52,12.14-30.1,29.1-51.27,34.43-34,19.46-67.81,39.08-101.88,58.32-12.89,7.28-26,14.32-39.46,20.41-51.84,23.45-105.76,32.45-162.49,23.54-41.47-6.52-80.14-20.77-117.68-38.91s-71.53-42-104.76-67C551.86,830.8,514,808.35,471.6,793.8c-56.38-19.35-112.81-23-169.64-2.6a456.34,456.34,0,0,0-100.64,51.29c-49.46,33.33-94.9,72.57-147.8,100.9a5.13,5.13,0,0,0-2.45,3.53C50.24,965.23,49.61,983.56,48.93,1001.88Zm8.21-126.32,1.59.92c6-3.33,12.23-6.36,18-10.05Q137,828,197.16,789.37c29.68-19,60.34-36.07,93.25-49C342.9,719.7,395.72,716.66,449,736.6s104.92,43.93,152.88,75.2c33.62,21.92,67.45,43.57,102,63.9,24.38,14.34,49.54,27.54,78.62,30.92,13.44,1.56,26.48,6.56,39.91,8.31,16.56,2.15,33.16,5.08,50.08,2.84,44.4-5.88,86.65-18.71,125.27-41.37,51.66-30.3,102.69-61.68,153.73-93,26.2-16.07,53.28-30.15,82.14-40.79,33.27-12.27,67-22.7,102.42-26.56,37.55-4.09,75.09-2.15,112.65-.42,24.69,1.13,49.39,3.32,74-.57,12.89-2,25.62-4.52,37.9-11.59-6.47-2.7-12.22-5.25-18.08-7.53-33.29-12.93-68.1-20.23-102.8-28-46.45-10.45-93.11-15.35-140.67-8.85-51.71,7.07-100.11,23.21-143.51,52.39-28.7,19.3-56.28,40.27-84.53,60.24-29.76,21-60.26,40.35-95.73,51.2C937,834.59,898.8,845.73,858.28,845.43a512.31,512.31,0,0,1-127.8-16.85c-32.08-8.48-62.53-20-89.56-39.27-19.63-14-38.15-29.55-57.53-43.92-28.72-21.29-56.63-43.74-89.77-58.41-26.4-11.69-53.16-21.36-82.27-23a297.15,297.15,0,0,0-138.67,25.5c-49.68,22-96,50-140.6,80.95-19.94,13.84-40.92,26.2-61.37,39.31A6.15,6.15,0,0,0,68,813.18C64.3,834,60.74,854.76,57.14,875.56Zm66.6,493.72c1.91-2.08,3.17-3.32,4.27-4.68a522.27,522.27,0,0,1,95.41-91c20.1-14.85,42.28-27,64.06-39.41,7.9-4.5,17.22-7,26.21-9a46.42,46.42,0,0,1,19.32,0c10.75,2.36,13.27,11.32,6.15,19.7a46.52,46.52,0,0,1-8.79,7.9c-13.88,9.7-27.65,19.6-41.94,28.66-33.29,21.12-66,42.91-94,71.07-15.32,15.44-31.32,30.29-42.45,49.35-7.39,12.65-7.51,12.64-.76,25.82,4.69,9.15,9.53,18.21,14.39,27.27,2.39,4.46,5,8.82,7.35,13,.81-.09,1.09,0,1.17-.14,4.9-6.45,9.44-13.21,14.73-19.32a1042.51,1042.51,0,0,1,156.64-147.36c16.9-12.88,36.19-21,56.33-26.59a67.28,67.28,0,0,1,42.91,1.72c14,5.31,28.84,8.27,43.05,13,40.27,13.58,77.23,34.27,114.52,54.2,27.76,14.83,55.94,28.54,86.62,36.5,45.28,11.75,86.22,2.22,123.21-25.26,6.23-4.62,10.45-12.09,15.08-18.61,1.4-2,1-5.19,1.48-7.84a70.31,70.31,0,0,0-7.88-.87,36.52,36.52,0,0,0-6.45.89c-21.18,3.5-42.35,5.3-63.7,1.17-49.46-9.57-94.9-28.66-137.11-56.11-34.31-22.3-68.85-44.3-104-65.25-30.84-18.38-64.12-30.76-100.43-33.08a334.18,334.18,0,0,0-78.66,4.34c-43.7,7.59-85.54,20.29-123.57,44.31-35.1,22.15-67.08,48-97.37,76.21-8.88,8.26-9.09,8.26-4.87,19.56C110.81,1335.92,117.2,1352.25,123.74,1369.28Zm591.09,77.09c-1.2-1.29-1.42-1.77-1.74-1.83-5.4-1.16-10.86-2.09-16.22-3.42-31.32-7.77-60.28-21.27-88.39-36.77-42.59-23.48-85.65-46-130.23-65.51-18.45-8.07-37.22-14.45-57.89-12.1-20.18,2.3-38.61,9.07-56,19.54-34.51,20.74-64.6,46.89-93.62,74.47-24.12,22.92-47.65,46.38-67.08,73.57-8.2,11.48-8.18,11.53-.55,23.07,4.91,7.43,9.8,14.86,14.89,22.16,5.75,8.24,11.71,16.32,19,26.49,6-6.81,11-13.22,16.71-19,16.19-16.24,34.83-29.14,55.17-39.68,19.85-10.27,40.95-12.86,62.82-10.38,26.71,3,50.7,13.7,73,28,24.43,15.73,48.08,32.67,72.42,48.56a236,236,0,0,0,29.16,15.67c9,4.23,18,2.48,25.49-4,10.31-8.93,20.33-18.2,30.22-27.6,2.75-2.6,4.57-6.18,6.86-9.36-7.56-4.91-14.51-9-21-13.74-15.07-10.88-29.66-22.46-45-33-26.09-18-52.53-35.6-84-42.83-33-7.58-66.44-12.53-100.45-12.46a177.59,177.59,0,0,1-23.65-1.2c-2.73-.36-6.34-3.17-7.19-5.67-.73-2.14,1.14-6.28,3.16-8.08,25.77-22.89,56.06-32.8,90.27-29.24,32.36,3.36,62.14,14.8,89.81,31.73,20.06,12.27,39.59,25.49,60.09,37,16.3,9.15,33.53,16.71,50.66,24.25,11.33,5,22.35,2.94,32.56-4.24,16.65-11.73,33.53-23.13,50.15-34.88C708,1453.26,711.19,1449.69,714.83,1446.37Zm509.91-828.2.62,1.28c3.26,0,6.54.24,9.77,0,15.37-1.31,30.71-3,46.09-4.09,31-2.16,62-3.69,93-6.05,24.69-1.88,45.92-10,63.87-29.11,29.33-31.24,56.17-63.74,73.93-103.1a202.74,202.74,0,0,1,15.36-28,56.66,56.66,0,0,1,14.5-15.26c8.59-6,15.69-1.83,15.9,8.54.3,14.83,1.1,29.72.16,44.48-.58,9.05-2.45,18.73-6.53,26.7a236.7,236.7,0,0,1-24.13,37.9c-12.53,16-26.93,30.58-39.84,46.32-6.58,8-11.91,17.15-17.3,26.07-1.73,2.87-1.85,6.72-2.88,10.83,7.69-2.75,13.86-5.39,20.29-7.16A114,114,0,0,0,1528.77,606a332.46,332.46,0,0,0,25.48-22.22q32.37-31.83,64-64.4c7.23-7.48,13.33-16.1,19.64-24.43,4.81-6.35,3.59-13.08-.21-19.44a72,72,0,0,0-6.08-8c-10.72-13.21-22.09-25.94-32.06-39.69-14.6-20.14-28.11-41.06-42.27-61.53-4.29-6.21-8.66-6.89-14.31-1.71a62.22,62.22,0,0,0-12,14.51c-7.38,12.85-17.63,22.73-29.44,31.27-15.81,11.43-31.24,23.43-47.52,34.15-24.91,16.4-47,35.39-63,60.92-8.64,13.73-20.49,24.65-33.87,33.7-11,7.41-22,14.72-33.6,21.16-23.46,13.09-47.46,25.22-70.84,38.46C1242.82,604.27,1234,611.63,1224.74,618.17Zm274.1,616.25c-.32-.43-.64-.86-1-1.28-1.27.43-2.56.81-3.8,1.31-38,15.28-76.15,30.31-114,45.93a536.24,536.24,0,0,0-85.37,45c-38.93,25-71.59,55.89-92.24,98.17-14,28.58-19.18,58.34-13.73,89.84,5.38,31,17.64,59.76,29.55,88.61a10.15,10.15,0,0,0,1.36,1.88,8.48,8.48,0,0,0,1.6-1.18c1.27-1.51,2.49-3.07,3.7-4.63,18.63-24.11,22.22-51.82,19.08-81-3.16-29.34-5.44-58.7-4.12-88.23a97.39,97.39,0,0,1,1.39-13.54c.93-5,3.08-9.67,8.64-11,5.36-1.28,9.63,1.71,12,5.86,4.24,7.49,8.46,15.22,11,23.37,6.48,20.51,8.42,41.78,8.81,63.23.1,5.56.93,11.11,1.42,16.67l2,.59c3.41-4.22,7.27-8.16,10.16-12.72,16.3-25.71,32.62-51.41,48.41-77.43,8.34-13.74,15.36-28.51,16.42-44.72,1-14.7-1-29.56-.67-44.34.21-11.16.8-22.55,3.24-33.39,2.56-11.39,14-13.49,20.77-4.09a52.05,52.05,0,0,1,8.14,18.71c2.5,11.06,3.58,22.44,5.59,35.87Zm-234.38,388.75c6.51,1.78,12.4,4.33,18.48,4.89,43,4,81.46-6.93,115.58-34.28,37-29.62,66.51-65.19,90.56-105.73,14.58-24.59,26.56-50.41,28.44-79.07,2.65-40.42,3.29-81,4.32-121.49.23-8.94-1.5-17.93-2.33-26.9l-2.12-.73c-5.26,6.76-10.63,13.44-15.77,20.29-13.76,18.34-28,36.34-41,55.23-28.63,41.73-56.57,83.93-84.8,125.93-2.46,3.66-5,7.3-7.85,11.59,2.85-.38,5-.49,7.1-1,23.46-5.5,46.88-11.16,70.36-16.56,11.14-2.56,22.32-5.21,33.63-6.6,3.46-.42,8.7,2.28,10.83,5.22,3,4.08-.25,8.64-4,11-11.77,7.52-23.25,15.9-35.92,21.47-15.12,6.64-31.43,10.51-47.09,15.94-23.3,8.08-46.67,16-69.6,25-7,2.78-13,8.71-18.91,13.88-2.72,2.39-4,6.41-6.89,11.28,5.22-.41,8.56-.27,11.69-1,14.81-3.44,29.5-7.44,44.35-10.65,16.39-3.55,32.87-6.82,49.42-9.48,5.7-.92,11.85-.19,17.6.86,2.25.41,5.2,3.57,5.58,5.85s-1.61,5.6-3.6,7.16c-3.2,2.51-7.16,4.15-11,5.78-25.78,11-51.47,22.31-77.44,32.9-20.66,8.43-41.69,15.93-62.49,24C1274.75,1610.69,1267.9,1613.56,1264.46,1623.17Zm288.22-968.46c4.83,1.91,9.15,4.54,13.78,5.31,28.25,4.71,55.48,2.71,80.7-12.71a230.11,230.11,0,0,0,54.46-46.38c31-36,62.87-71.15,97.7-103.52,3-2.78,2.35-4.7.42-7.47-15.63-22.33-30-45.67-47-66.86-23.39-29.1-48.77-56.6-73.41-84.69a10.49,10.49,0,0,0-5.84-3.31c-14.29-2-28.59-4-43-5.32-4.76-.45-9.77.66-14.52,1.73-5,1.11-6.15,5-4.07,9.19a83,83,0,0,0,8.72,14.75,775.63,775.63,0,0,0,87.87,93.76c18.53,16.87,39.13,31.47,58.78,47.1,3.68,2.93,7.19,6.27,5.44,11.47-1.66,4.92-6.16,6.33-10.91,6.78a21.09,21.09,0,0,1-5.32.09c-8.77-1.4-17.6-2.56-26.23-4.55-15.79-3.63-30.61-2.56-42.53,9.38-15.36,15.39-30.78,30.83-44.84,47.38-17.32,20.37-34.38,40.9-54.7,58.39C1576.86,635,1565.16,644.38,1552.68,654.71ZM1766.32,1003l.73,2.16,22.9.84c11.89.42,23.84,1,34.58,6.76,2.75,1.48,6,5,6,7.72s-3.09,6.08-5.64,8.2c-2.13,1.78-5.33,2.64-8.19,3.12-6.82,1.14-13.71,1.86-20.57,2.69-19.79,2.37-40,2.82-59.26,7.5-29.85,7.26-52.39,25.29-64.9,54.21-3.47,8-1.89,12.58,6.56,14.16,11.15,2.09,23,4.41,34,2.81,67.36-9.78,113.66-48.11,140.39-109.56,18.13-41.69,16.67-83.74-9.08-122.33-13.54-20.31-30.18-38.54-45.38-57.66-9.4,6.71-67.4,139-66.49,150.93,5.27-3.38,10.28-6.48,15.16-9.76,15.41-10.38,30.47-21.33,46.27-31.08,9.67-6,20.28-10.58,30.82-14.93,5.56-2.29,12.57-3.94,17,1.92,4.68,6.1,2,13-2.11,18.11-6.44,8.18-13.19,16.42-21.12,23.08-14.52,12.19-30,23.21-45,34.81A90.2,90.2,0,0,0,1766.32,1003ZM391.37,1676.64c21-2,47.19-4,73.27-7.12,13.35-1.58,26.36-5.4,37.44-13.73,7.68-5.77,8.38-10.23,2.73-18a52.85,52.85,0,0,0-6.36-7c-7.17-6.81-14.38-13.58-21.71-20.23a344.77,344.77,0,0,0-63.43-45.6c-13.06-7.31-27-12.23-42.15-12.74-43.15-1.45-73.41,20-96.58,54.2-2.37,3.51-1,5.62,1.34,8.15,16.72,17.94,33.26,36,50.17,53.81a16.48,16.48,0,0,0,9.64,4.59C352.47,1674.39,369.26,1675.24,391.37,1676.64Zm1370.69-866c-3.22,0-5.29-.08-7.36,0-58.1,2.7-107.54,23.69-145.46,69-26.67,31.84-45,67.37-46.8,109.71-1,22.88,2.22,45.21,15.67,64.52a50.93,50.93,0,0,0,16.73,15.41c16.38,8.86,31-.74,30.63-19.11,0-.4,0-.8,0-1.19-2.09-16.85-3.83-33.76-6.38-50.54s-7.65-33.34-8.43-50.14c-.7-15.36,2.31-31,4.79-46.36,1.51-9.34,8.86-10.83,15.51-3.94a24.67,24.67,0,0,1,4.95,6.61c3.2,7.19,6.33,14.46,8.88,21.9,8.36,24.45,16.44,49,24.71,73.47.64,1.91,1.89,3.62,3.43,6.47,1.76-3.32,3.25-5.42,4-7.75,2.51-7.28,5.33-14.52,7-22,5.38-24.29,10.6-48.63,15.31-73,6-30.82,20.23-56.23,46-74.87,4.75-3.44,8.71-8,12.87-12.23C1759.48,815.05,1760.39,813.1,1762.06,810.61ZM983.44,1931.71a13,13,0,0,0,2.16-1.22c1.41-1.38,2.83-2.77,4.13-4.25,21-24,35.15-51.75,46.5-81.36,5.85-15.28,5.09-28.73-3.09-42.84-5.5-9.48-9.48-19.94-13.28-30.28a31.43,31.43,0,0,1,1.26-25.39c3.15-6.35,7.72-7.36,12.64-2.38a49.2,49.2,0,0,1,8.49,11.31c6,11.34,11.58,22.9,17.12,34.48,3.31,6.89,6.23,14,9.34,21,4.92-2.84,78.18-113.81,83.84-126.6-1.5.37-2.85.57-4.1,1-28.59,10.36-57.3,20.38-85.69,31.25-17.77,6.8-34.55,15.5-47.94,29.78-22.6,24.1-32.19,53.3-35.06,85.48-2.84,31.72,1.1,63.22,2.53,94.8A33.52,33.52,0,0,0,983.44,1931.71Zm108.79-77.59c2-.65,4-1.27,6-1.95,17.35-6,34.62-12.26,52.1-17.83a74.41,74.41,0,0,1,19.2-3.08c8.3-.36,11.72,5.08,7.75,12.43a40.76,40.76,0,0,1-10,12.24,102.53,102.53,0,0,1-17.59,10.87c-19.67,10.11-40.06,19-59.09,30.14-14.71,8.64-28.25,19.5-41.37,30.5-5.73,4.8-9.09,12.41-14.15,19.63a32.05,32.05,0,0,0,4.24.55c27.58-2.25,55.16-4.47,82.72-6.94a11.42,11.42,0,0,0,6.58-3.29c6.88-7.08,13.69-14.28,20.08-21.81,32-37.75,48.38-81.68,49.34-131,.33-17.1-2.13-34.3-3.84-51.4-1-9.65-3-19.19-4.57-28.79l-1.93-.41C1157.39,1754.87,1127.92,1806.29,1092.23,1854.12ZM1653,1584.82l.91,1.55c4.19-.52,8.38-1,12.56-1.55,25.09-3.42,50.3-7.79,75.52-3.8,9.32,1.47,13.76-1.41,17.74-8.23,1.73-3,4.57-6.15,4.5-9.17-.65-27.23,3.67-54,6.88-80.85,1.59-13.27,1.63-26.73,2.09-40.12.2-5.91-2.55-8.65-9.07-8.52-9.07.18-18.16-.94-27.24-1.28-13.12-.49-26.73-.85-38,6.46-18.78,12.15-33.6,28.18-40.44,50.22a86.31,86.31,0,0,0-3.08,39.28c2.12-2,3.5-3.38,4.92-4.69,21.25-19.51,42.37-39.17,63.8-58.47,9.64-8.68,21.39-13.41,34.23-15.07,2.69-.34,5.57.83,8.37,1.3-1,2.79-1.22,6.22-3,8.24-8.18,9.12-16.57,18.09-25.31,26.67-25.29,24.82-49.78,50.35-71.47,78.43C1661.92,1571.54,1657.56,1578.28,1653,1584.82Zm-587-59.59-1.47-1.14c-16.42,15.91-33.94,30.86-49,47.94-28.18,31.9-43.26,69.45-42.73,112.57.16,13.51,7.81,18.53,19.11,11.24,10.18-6.58,20.24-14.07,28.34-23C1058.29,1630.91,1067.06,1579.52,1065.94,1525.23Zm311.35-536.75c-.37-.45-.75-.89-1.13-1.33-.93.2-1.88.33-2.79.6-54.73,15.83-101,45.43-139.62,87-4,4.35-6.52,11.74-6.68,17.8a153.11,153.11,0,0,0,2.8,35.26c3.45,16.37,8.6,32.4,13.47,48.44,1.76,5.78,4.59,6.16,8.72,1.63a36.5,36.5,0,0,0,5.88-8.82c11.47-24.12,17.25-48.62,6.46-74.87-3-7.36-4.4-15.62-5.13-23.6-.31-3.46,2-9,4.76-10.37s7.53,1.29,11,3c2.51,1.29,4.34,4,6.37,6.13,3.65,3.89,7,8.14,10.89,11.71,5.32,4.81,6.53,4.54,11-.8,13.16-15.81,26.47-31.49,39.39-47.49C1354.41,1018.18,1365.76,1003.25,1377.29,988.48ZM972.4,1562.94c2.19-1.86,3.14-2.54,3.94-3.37,14.33-14.73,28.87-29.27,42.86-44.33,7.37-7.94,14-16.64,20.53-25.29,5.83-7.69,7.26-16.17,2.16-24.92-4.07-7-7.83-14.23-12.67-20.65-18.08-24-36.54-47.66-54.89-71.43-.18-.23-.7-.19-1.45-.37C977.6,1435.62,976.68,1498.53,972.4,1562.94Zm-301.26-7.59c-18.25,26.45-36.41,51.94-48.65,80.82-8,18.87-7.78,38.38.11,57.74,9.47,23.23,22.25,44.49,36.86,64.74,1.16,1.6,3.15,2.59,4.75,3.86,1.07-1.79,2.87-3.49,3.1-5.38,1.38-11.15,3.25-22.34,3.36-33.52.47-46.28.37-92.56.47-138.84C671.16,1575.37,671.14,1566,671.14,1555.35Zm-139.86,270c-1.53-59.71,9.56-115.93,28.58-171.15-2.08,1.23-3.37,3-4.85,4.56-20.28,21.36-40.68,42.62-60.84,64.1a179.81,179.81,0,0,0-13.38,16.6c-11.11,15.12-14.25,31.14-4.18,48.06,2,3.38,4.69,6.85,7.93,8.93C499.79,1806.23,515.34,1815.55,531.28,1825.34Zm249.29-99.23-1.62-.8c-.5.82-1,1.68-1.51,2.47-19.17,27.33-38.78,54.37-57.24,82.17-4.94,7.44-6.64,17.14-9.23,26-.74,2.54.61,5.69,1.17,9.79,6.47-4.46,11.38-8.11,16.55-11.33a185,185,0,0,1,17-9.6c3.8-1.85,8.93-2.88,11.31,1.17,1.59,2.71.93,7.51-.21,10.87-1.56,4.61-4.42,8.8-6.91,13.06-5.79,9.89-12,19.54-17.44,29.62-3,5.51-5,11.59-6.89,17.58-1.74,5.42-.15,6.85,5.48,5.69,8.58-1.77,14.91-7.13,20.63-13.24,27.06-29,37.86-64,36.1-102.81C786.81,1766.45,783.05,1746.31,780.57,1726.11Zm152-158.14,2.86-.44c1-8.69,2.74-17.38,2.73-26.08,0-46.88-.51-93.76-.83-140.65,0-3,0-6,0-10.74-3.45,4.88-5.73,8.06-8,11.27-12.39,17.87-25,35.63-37.11,53.65-11.38,16.89-12.09,34.5-1.19,51.81,10.51,16.72,21.68,33,32.68,49.44C926.46,1560.29,929.61,1564.06,932.56,1568Zm637.89,57.54c5-6,10.48-11.6,14.77-18a211.74,211.74,0,0,0,28.19-62.35c8-29.31,14.63-59,21.78-88.5.43-1.76.28-3.67.45-6.36-3,1.14-5,1.83-7,2.67a63.87,63.87,0,0,0-28.76,24.85c-7.94,12.46-15,25.48-22.11,38.47C1558.86,1551.08,1561.82,1587.69,1570.45,1625.51ZM934.65,1700l2.55-.45c-1.21-12.32-1.86-24.72-3.72-36.94-5.62-37-17-71.47-43.93-99.12-5.91-6.06-10.73-13.19-15.92-19.93-4.79-6.22-9.41-12.59-14.7-19.68-.62,2.83-1.16,4.67-1.43,6.56-3.83,27.27,1.81,53,12.21,78.11C884.43,1644,912.33,1670,934.65,1700ZM706.76,1577.77c-9.6,54.75,2.4,108.32,4.94,162.73,9.36-8,19-15.55,26.13-25,22-29.44,24.1-48.4,5-80-6.84-11.35-13.51-22.8-20.51-34C717.39,1593.38,712,1585.63,706.76,1577.77ZM595.45,1731.65a12.24,12.24,0,0,0-1.17,1.52c-.64,1.22-1.23,2.47-1.81,3.72-8.48,18.23-7.85,36.8-1.85,55.46,11.74,36.47,37.38,61.13,69.08,80.45,1.25.76,5.12-.47,5.94-1.86a17.18,17.18,0,0,0,1.84-8.5c-.1-18.2-4.4-35.4-14.82-50.4C634,1785.12,614.68,1758.61,595.45,1731.65Zm765.32,145.89a13.5,13.5,0,0,0,3.14-.45q50.21-24,100.33-48.23a7.45,7.45,0,0,0,3.35-5c4.08-27.36,8.22-54.71,11.72-82.15,1-8.2.16-16.64.16-25.9-1.86,1.44-3.09,2.09-3.91,3.07-8.86,10.62-18,21-26.3,32.08-3.58,4.78-6,10.74-7.71,16.52a27.49,27.49,0,0,0,5.13,25.72c2.45,3.08,7.11,4.38,7.31,9.37.06,1.5.38,3,.58,4.49-1.61,0-3.23,0-4.83.14a9,9,0,0,0-3.68.71c-8.26,4.65-16.52,9.32-24.65,14.18C1397.69,1836.31,1378.74,1855.71,1360.77,1877.54Zm161.43-84.82a812.07,812.07,0,0,0,119-90.4c-21.33,0-41.9-1.09-62.3.34-17.29,1.2-28.52,12.15-34.26,28.6s-11.67,32.7-17.58,49C1525.57,1784.47,1523.83,1788.58,1522.2,1792.72Zm204.8-179c-.28-.51-.55-1-.82-1.55-9,.58-18.11,1.1-27.15,1.76-23.67,1.72-47.32,3.88-69.88,11.84a147,147,0,0,0-24.62,11.41c-2.84,1.63-5.41,6.22-5.41,9.46,0,2.34,4.25,5,7,6.91,1.67,1.19,4.06,1.43,6.16,2,19.13,4.89,38.32,3,57.7,1.48,14.21-1.15,25.49-5.2,34.15-17.17C1710.87,1630.5,1719.31,1622.39,1727,1613.73Zm-332.58-481.37c-20.18,9.22-39.36,17.45-58.05,26.69a101.45,101.45,0,0,0-41.56,36.91c-1.81,2.84-2.68,6.28-4,9.44,3.58.31,7.31,1.41,10.74.8,34.8-6.2,63.54-23,85.67-50.58,3.61-4.49,5.82-10.22,8-15.63C1396,1138.15,1394.84,1135.5,1394.42,1132.36Zm-56.64-21.08.94,1.86c4.78-.35,9.66-.2,14.33-1.13,15-3,26.92-11.85,38.66-21,6.07-4.76,10.4-10.59,11-18.25,1.18-15.34,1.78-30.73,2.54-46.1.06-1.18-.49-2.39-.94-4.4C1381.93,1052.55,1354.93,1078.29,1337.78,1111.28Zm71.7,625.92-2.13-1.38a50.21,50.21,0,0,0-5.9,4.2c-5.84,5.55-11,11.87-17.34,16.83-24.83,19.57-42.11,44.79-55.6,72.91-1.87,3.91-5,9.32-.45,12.26,2,1.32,8.39-1.44,11.07-4.08,9.56-9.41,19-19.09,27.35-29.55,15.2-19,29.39-38.77,39.82-60.92C1407.81,1744.26,1408.44,1740.63,1409.48,1737.2Zm-131-471c14.7,5.32,57.91-8.65,64.61-20.15-3.2-1.24-6.48-3.78-9.47-3.47-16.83,1.75-32.87,6.42-47.2,15.76C1283.68,1260.14,1281.61,1263.08,1278.53,1266.18ZM383.81,1720.24l-.6,1.39,31.53,25.63c4.21-5.31,7.85-9.9,11.78-14.84C413.16,1723,398.13,1722.91,383.81,1720.24Z"
    transform="translate(-1.4 -0.21)"/>
  <path
    class="main-logo-details-svg{% if override_color %}'-override'{% endif %}"
    d="M1910.88,1171.31c-16.24-.08-25.08-5.31-30.42-15.69-5.88-11.42-5.54-22.87,1.67-33.75,1.62-2.44,3.63-4.27,2.18-7.87-.45-1.1,2.33-3.75,4-5.31.65-.61,2.31-.39,3.46-.2,15.27,2.53,28.13,9.45,37.1,22.2,6,8.51,6.86,18.16,1.82,27.54S1916.89,1171.34,1910.88,1171.31Z"
    transform="translate(-1.4 -0.21)"/>
  <path
    class="main-logo-details-svg{% if override_color %}'-override'{% endif %}"
    d="M1672.06,1264.87c17.52,0,28,10.8,27.48,23.67a83.92,83.92,0,0,1-1.53,12.33c-3.17,16.53-14.49,23.57-31.5,19.77-15.91-3.56-24.17-16.4-20.3-31.68,1-3.86,3.22-7.44.72-11.76-.52-.89,1.61-4.65,3.2-5.23C1658.76,1268.83,1667.59,1266.28,1672.06,1264.87Z"
    transform="translate(-1.4 -0.21)"/>
  <path
    class="main-logo-details-svg{% if override_color %}'-override'{% endif %}"
    d="M1758,1292.74c22.29-.7,27.16,13.09,25.27,32.34-1.21,12.38-18.45,22.87-30.74,20.13-6.29-1.4-10-5.83-11.3-11.71-1.26-5.73-1.45-11.7-1.93-17.59-.33-4.13.47-8.54-.71-12.36-1.89-6.11,1.12-8,6-9C1749,1293.77,1753.53,1293.34,1758,1292.74Z"
    transform="translate(-1.4 -0.21)"/>
  <path
    class="main-logo-details-svg{% if override_color %}'-override'{% endif %}"
    d="M1774.11,1226.86c1.93-10.33,3.36-20.06,5.69-29.57,1.28-5.27,15.21-8.85,20.51-5.7a15.08,15.08,0,0,1,4.86,4.24c7.24,10.86,10.78,22.87,9.55,35.9-.75,7.91-3.6,10.42-11.3,12.38-4.2,1.07-8.32,2.5-12.54,3.54-6.37,1.57-9.91.11-12.36-5.93C1776.54,1236.85,1775.48,1231.61,1774.11,1226.86Z"
    transform="translate(-1.4 -0.21)"/>
  <path
    class="main-logo-details-svg{% if override_color %}'-override'{% endif %}"
    d="M1484.87,1137.22c.22-1.56.47-3.12.68-4.68,1.4-10.41,9.91-15.88,16.76-21.77,3.22-2.77,10.18-1.84,15.37-1.49,8,.53,14.2,9,12.58,17a48.6,48.6,0,0,1-19.83,30.56c-7.07,5.08-13.43,4.18-18.45-3-3.41-4.85-5.55-10.59-8.26-15.94Z"
    transform="translate(-1.4 -0.21)"/>
  <path
    class="main-logo-details-svg{% if override_color %}'-override'{% endif %}"
    d="M1862.69,1218.9c-3.88-2.3-8.7-3.81-11.47-7.06-9-10.62-12.26-23.22-9.7-37,1.13-6.06,6.19-9.33,12.33-8.38,11.8,1.83,24.42,13.41,27.42,25.17C1884.36,1203.7,1875,1217.46,1862.69,1218.9Z"
    transform="translate(-1.4 -0.21)"/>
  <path
    class="main-logo-details-svg{% if override_color %}'-override'{% endif %}"
    d="M1709.75,1210.47c-1.46,4-2.4,8.31-4.47,12-5.92,10.41-16.1,10.24-22.18-.1-4.18-7.12-2.4-17.35,4-22.55.3-.25.76-.35,1-.65,3.08-4,6.15-7.52,12-4.27C1706.2,1198.27,1709.38,1203.1,1709.75,1210.47Z"
    transform="translate(-1.4 -0.21)"/>
  <path
    class="main-logo-details-svg{% if override_color %}'-override'{% endif %}"
    d="M919.25,591.7c-21.74.66-43.5,2-65.23,1.73-14.53-.19-29.1-2.21-43.49-4.43-5.41-.84-10.81-3.92-15.43-7.11-9.09-6.27-9-15.93-.13-22.56,11.84-8.87,25.78-12.56,40.08-12.66,19.51-.14,39,1.61,58.56,2.46,27.07,1.18,54.14,2.19,81.2,3.45a282.14,282.14,0,0,1,28.34,2.31,39.79,39.79,0,0,1,14.18,5.43c6.2,3.73,8.16,10.41,6.41,17.68-1.55,6.43-6,10.23-13.76,11-5.3.54-10.66.59-16,.72q-37.37,1-74.73,1.85Z"
    transform="translate(-1.4 -0.21)"/>
  <path
    class="main-logo-details-svg{% if override_color %}'-override'{% endif %}"
    d="M861.53,747c-26.68-.48-53.37-1.19-79.15-9.29-4.69-1.47-9.66-2.76-13.73-5.36-3.16-2-6.95-5.86-7.07-9s3.5-8.06,6.54-9.1c11.5-4,23.27-7.63,35.23-9.55,17.33-2.79,34.88-4.43,52.4-5.72,21.37-1.57,42.12,2.14,62.19,9.58a26,26,0,0,1,5.24,2.7c5.88,3.88,6.44,7.73,2.12,13.3-11,14.26-25.19,22.51-43.61,22.46Z"
    transform="translate(-1.4 -0.21)"/>
  <path
    class="main-logo-details-svg{% if override_color %}'-override'{% endif %}"
    d="M597.6,598.57c-9.44-1.3-21.82-2.48-34-4.91-5.39-1.09-10.81-4-15.29-7.31-9.23-6.85-9.38-15.72-1-23.55a42,42,0,0,1,25.43-11.54,180.69,180.69,0,0,1,23-.24c15.87.61,31.85.66,47.57,2.67,15.21,1.95,30.14,6,45.18,9.27a17.47,17.47,0,0,1,4.42,1.66c3.87,2.06,7.83,4.15,7.86,9.42,0,5.09-3.48,7.64-7.27,10-9.83,6.09-20.73,8.51-32.07,9.42C641.21,595.09,620.93,596.7,597.6,598.57Z"
    transform="translate(-1.4 -0.21)"/>
  <path
    class="main-logo-details-svg{% if override_color %}'-override'{% endif %}"
    d="M982.82,511.58c-10.14-.77-24.89-1.86-39.63-3.08a26.5,26.5,0,0,1-5.72-1.49c-5.6-1.78-10.1-4.84-11-11.14-.92-6.72,2.3-12.06,8-14.55,8.37-3.63,17.12-7.52,26-8.55a321.84,321.84,0,0,1,49-2c7.68.28,15.54,4.11,22.68,7.64A15.86,15.86,0,0,1,1041,496.2a16.86,16.86,0,0,1-15.6,13.3C1012.8,510.52,1000.15,510.78,982.82,511.58Z"
    transform="translate(-1.4 -0.21)"/>
  <path
    class="main-logo-details-svg{% if override_color %}'-override'{% endif %}"
    d="M672.72,671.89c-12.58-1.07-25.18-2-37.73-3.32a35,35,0,0,1-11.28-3.29c-7.52-3.63-9.2-10-5.06-17.26,6.65-11.62,16.55-18.08,30-19.62a79,79,0,0,0,15.64-3.81c12.06-4,42.16,3.75,50.53,13.27,8,9.06,6.32,22.29-4.48,27.58-6.35,3.11-13.82,4.3-20.94,5.4-5.4.83-11,.16-16.57.16Z"
    transform="translate(-1.4 -0.21)"/>
  <path
    class="main-logo-details-svg{% if override_color %}'-override'{% endif %}"
    d="M591.51,517.31c-9.15-1.38-18.37-2.44-27.41-4.3a29.16,29.16,0,0,1-10.58-5.07c-8-5.75-8.11-12.69-.51-18.9,19.13-15.62,40.39-22.11,64.46-13.7,6,2.09,11.5,6,16.64,9.83,4.55,3.42,4.83,8.27,1.59,13.19-6,9.13-13.55,15.93-25.13,16.72-6.31.43-12.61,1-18.92,1.51Z"
    transform="translate(-1.4 -0.21)"/>
  <path
    class="main-logo-details-svg{% if override_color %}'-override'{% endif %}"
    d="M859.65,511.29c-8-1.18-17.75-2.39-27.43-4.19a34.75,34.75,0,0,1-10.36-4.18c-4.27-2.42-7.44-5.88-7.22-11.36a11.41,11.41,0,0,1,8.45-11.05c10.55-3.15,21.22-6.34,32.07-7.93,11.62-1.7,23.5-1.84,35.27-2.1,3.38-.07,7,1.41,10.18,2.85,11.56,5.21,13.72,19.15,3.09,26.07-7.53,4.9-16.86,7.3-25.66,9.89C872.83,510.83,867.09,510.56,859.65,511.29Z"
    transform="translate(-1.4 -0.21)"/>
  <path
    class="main-logo-details-svg{% if override_color %}'-override'{% endif %}"
    d="M452,519.22c-4.34,0-8.69.17-13,0-12-.57-18.29-5.07-20.46-14.35-2.27-9.71,2.62-21,11.42-25.87a37.9,37.9,0,0,1,7.69-3c5.4-1.59,10.83-3.07,16.3-4.35a8.7,8.7,0,0,1,5.26.14q16.19,7.66,32.12,15.83c1.64.84,2.81,2.74,4,4.31,7.57,10,4.62,20.36-7.58,23.21-11.65,2.73-23.7,3.75-35.58,5.51Z"
    transform="translate(-1.4 -0.21)"/>
  <path
    class="main-logo-details-svg{% if override_color %}'-override'{% endif %}"
    d="M839.36,646.45a27,27,0,0,1-31.59,26.44c-11.22-2-21.84-5.71-30.95-12.72a33,33,0,0,1-7.56-8.21c-3.83-6-3.22-12,2.18-16.54,4-3.38,9-5.63,13.53-8.31,2.66-1.57,6.76-1.45,6.5-6.32,0-.63,2.83-2.15,4.23-2,9,.89,18.19,1.36,27,3.42C833.84,624.8,839.4,633.77,839.36,646.45Z"
    transform="translate(-1.4 -0.21)"/>
  <path
    class="main-logo-details-svg{% if override_color %}'-override'{% endif %}"
    d="M1121.55,546.27c5.82,1.63,13.71,2.91,20.79,6.05,9.58,4.25,11.38,12.1,6,21-2,3.39-4.2,6.71-6.51,9.91-9.32,12.94-19.21,16.64-34.5,12.49-6.84-1.85-13.81-3.78-20.13-6.87-15.2-7.43-16-22.74-2-32.28C1095.51,549.54,1107.56,548.47,1121.55,546.27Z"
    transform="translate(-1.4 -0.21)"/>
  <path
    class="main-logo-details-svg{% if override_color %}'-override'{% endif %}"
    d="M994.2,624.86c7.69,1.58,15.61,2.48,23,4.89,10.64,3.45,12.89,10.91,7.11,20.41-14,23-44.41,24.57-60.93,3.19-5.9-7.63-4.39-16.08,3.8-21.33C973.78,627.82,982.74,625.75,994.2,624.86Z"
    transform="translate(-1.4 -0.21)"/>
  <path
    class="main-logo-details-svg{% if override_color %}'-override'{% endif %}"
    d="M739.79,497.51c-.07-12.69,10.91-26.22,21.29-26.23,12.79,0,24.86,11.12,24.89,23,0,12.88-11,24.65-23.19,24.65C749.93,518.88,739.85,509.51,739.79,497.51Z"
    transform="translate(-1.4 -0.21)"/>
  <path
    class="main-logo-details-svg{% if override_color %}'-override'{% endif %}"
    d="M891.65,627.87c-.48-6.22,1.57-8.46,6.89-6.48,10.73,4,18.5,11.51,21.84,22.53,2.1,7-1.4,12.74-6.77,17.18-5.78,4.78-12.44,6.56-19.26,2.94a53.15,53.15,0,0,1-12.75-9.43c-8.58-8.69-6.38-19.2,4.69-24.52C887.88,629.32,889.56,628.73,891.65,627.87Z"
    transform="translate(-1.4 -0.21)"/>
  <path
    class="main-logo-details-svg{% if override_color %}'-override'{% endif %}"
    d="M1175.24,506.05a48.24,48.24,0,0,1-25-10.43c-5.33-4.43-5.65-8.16-1.68-13.84s9.86-7.5,16.13-8.92c4.32-1,8.6-2.14,12.86-3.38,4-1.18,12.9,4.3,14.15,9.59a43.59,43.59,0,0,1,1.24,13.44C1192.23,501.4,1185.94,506.34,1175.24,506.05Z"
    transform="translate(-1.4 -0.21)"/>
  <path
    class="main-logo-details-svg{% if override_color %}'-override'{% endif %}"
    d="M1239.24,511.35c-7.55,0-14.07-4.26-16.56-10.86-2.55-6.78-1.48-13.4,4.25-17.67,8.27-6.18,16-14.37,28.21-11.48,7.62,1.81,11.57,7.4,9,14.87a109.27,109.27,0,0,1-7.87,17.11C1252.54,510.06,1245.56,510.64,1239.24,511.35Z"
    transform="translate(-1.4 -0.21)"/>
  <path
    class="main-logo-details-svg{% if override_color %}'-override'{% endif %}"
    d="M1107.27,502.55c-3.22-1.08-9.26-2.45-14.69-5.06-9.35-4.5-10.54-13.17-3.48-20.87,2.52-2.75,6.58-4.33,6.3-9.28-.05-.78,3.77-2.9,5.2-2.45,7.05,2.22,14.42,4.22,20.68,8a15.14,15.14,0,0,1,6.61,18.61C1125.42,498.38,1118.21,502.9,1107.27,502.55Z"
    transform="translate(-1.4 -0.21)"/>
  <path
    class="main-logo-details-svg{% if override_color %}'-override'{% endif %}"
    d="M972.27,727.34c.32-14.63,10.9-22.77,25.08-19.3,4.76,1.16,9.21,8.88,6.84,14.64a53.63,53.63,0,0,1-10.54,15.83c-3.52,3.76-8.92,5.57-14.12,2.72S972.12,733.31,972.27,727.34Z"
    transform="translate(-1.4 -0.21)"/>
  <path
    class="main-logo-details-svg{% if override_color %}'-override'{% endif %}"
    d="M743,719.06c-1.05,4.23-1.64,7.34-2.61,10.33-1.67,5.18-4.77,9.44-10.47,10.11s-10.19-2.56-13.36-7.24c-4.61-6.82-4.74-19.63-.21-26.07.67-1,2.51-2,3.42-1.71,6.48,2,13.14,3.81,19.13,6.87C741.17,712.53,741.88,716.83,743,719.06Z"
    transform="translate(-1.4 -0.21)"/>
  <path
    class="main-logo-details-svg{% if override_color %}'-override'{% endif %}"
    d="M380.3,499.66c-.06,10.84-6.87,15-16.52,9.95-6.59-3.42-9.93-8.88-9.72-16.33.12-4.65,0-9.42,1-13.88.41-1.74,4-4.2,5.73-3.9C370.72,477.26,380.35,489.65,380.3,499.66Z"
    transform="translate(-1.4 -0.21)"/>
  <path
    class="main-logo-details-svg{% if override_color %}'-override'{% endif %}"
    d="M680.47,496c.89-6.23,1.25-11,2.38-15.54a7,7,0,0,1,4.1-4.13c8-2.6,16.32,3.34,17.33,12.2s-2.56,15.85-8.67,21.7c-3.7,3.54-8.92,2.72-11.39-2.18C682.16,503.94,681.41,499.17,680.47,496Z"
    transform="translate(-1.4 -0.21)"/>
  <path
    class="main-logo-details-svg{% if override_color %}'-override'{% endif %}"
    d="M770.25,208.09c-1.25-43.49,20.85-79.27,61.35-104a113.21,113.21,0,0,1,45.59-15.54c24.84-3,48.91-.82,72.13,8.81,10.44,4.33,19.25,10.74,25.95,20,5.2,7.22,10.71,14.22,16.21,21.21,32.68,41.49,36.84,120.53-24.23,162.76C936.4,322.67,903.19,333.8,866,331.41c-20.25-1.3-37-12.39-52.5-24.48C783.13,283.24,769.55,251.37,770.25,208.09Zm54.23,3.14c1.17,6.18,1.53,12.66,3.65,18.5,7.77,21.44,20,39.43,44.37,43.17,31.15,4.77,58-5.48,79.14-28.56,13.3-14.49,17.29-32.34,12.16-51.46-5.32-19.83-19-33.46-35.77-44.1-18.86-11.95-37.69-11.19-56.11,1.39a38.4,38.4,0,0,1-6.18,3.27C841.08,164.36,825.58,184.89,824.48,211.23Z"
    transform="translate(-1.4 -0.21)"/>
  <path
    class="main-logo-details-svg{% if override_color %}'-override'{% endif %}"
    d="M1193.25,152c-32.47-4.47-59.47-2.19-86.53-.27-8.73.62-17.77-.51-26.42-2.18-6.93-1.35-13.2-5.41-14.14-13.38-1-8.39,3.7-14.36,10.59-18.41,3.35-2,7.16-3.82,11-4.29,12.32-1.51,24.72-3.31,37.09-3.29,40.35.08,80.7.79,121,1.54a155,155,0,0,1,23.49,2.64,27.07,27.07,0,0,1,10.21,4.46c11.21,7.6,10.69,21.4-1.94,26a126.93,126.93,0,0,1-35.17,6.91C1224.31,152.83,1206.07,152,1193.25,152Z"
    transform="translate(-1.4 -0.21)"/>
  <path
    class="main-logo-details-svg{% if override_color %}'-override'{% endif %}"
    d="M1334.74,188.57c26.47,0,52.39-.67,78.25.38,8.47.34,16.92,4.72,25.07,8,5.7,2.31,7.32,7,3.57,11.93-3.3,4.3-8.09,8.77-13.07,10.21a117.21,117.21,0,0,1-30.25,4.94c-42.71.62-85.43.6-128.15.46-13.45-.05-17.08-4.73-15.8-18.2a53.9,53.9,0,0,1,1-6.44c1.56-7.27,3.05-8.28,10.61-8.56C1289.1,190.46,1312.21,189.48,1334.74,188.57Z"
    transform="translate(-1.4 -0.21)"/>
  <path
    class="main-logo-details-svg{% if override_color %}'-override'{% endif %}"
    d="M607.2,191.46c27.34-1,45.23,3.72,62.82,10a19.91,19.91,0,0,1,4.7,2.47c4.17,3,7.6,6.5,7.12,12.16s-4.37,9.12-9.18,10.55A105.15,105.15,0,0,1,651.28,231c-31.33,2.49-62.68,4.81-94.06,6.49-6.89.37-14-1.8-20.89-3.5a30.74,30.74,0,0,1-10-5.05c-7.69-5.43-8.58-14.53-2.38-21.66a27.75,27.75,0,0,1,18.41-9.71C566.77,195,591.19,192.94,607.2,191.46Z"
    transform="translate(-1.4 -0.21)"/>
  <path
    class="main-logo-details-svg{% if override_color %}'-override'{% endif %}"
    d="M1143.65,232.58c-15.39-.7-30.86-.61-46.13-2.3-16.8-1.86-23.52-12.76-19.12-28.37,2.2-7.8,7.12-13.12,15.21-13.83a324.4,324.4,0,0,1,33-1.15c12.22.19,24.46.88,36.63,2A316.11,316.11,0,0,1,1198.9,194c5.54,1.18,11.1,4.41,15.56,8,7.35,6,6.46,14.17-1.65,19a78,78,0,0,1-43,11c-8.69-.24-17.39,0-26.09,0Z"
    transform="translate(-1.4 -0.21)"/>
  <path
    class="main-logo-details-svg{% if override_color %}'-override'{% endif %}"
    d="M1122.86,306.22c-13.41-1-27.6-1.78-41.69-3.38-4.73-.54-9.52-2.71-13.72-5.11-6.61-3.8-7.25-9.26-2.69-15.47,4.82-6.56,11.81-9.15,19.41-10,6-.71,12.2-.54,18.31-.74,11.83-.38,23.65-.84,35.47-1.1,15.94-.34,31.52,1.46,46.15,8.34a22.28,22.28,0,0,1,5.38,3.62c4.88,4.42,5.1,10.74-.48,14-5.27,3.11-11.45,5.69-17.47,6.36C1155.67,304.49,1139.67,305.09,1122.86,306.22Z"
    transform="translate(-1.4 -0.21)"/>
  <path
    class="main-logo-details-svg{% if override_color %}'-override'{% endif %}"
    d="M463.93,315.69c-9.69-1.94-24.4-4.83-39.09-7.86a19.15,19.15,0,0,1-5.44-2.27c-7-4-7.94-9.42-1.72-14.62,13.56-11.34,28.79-19.61,46.61-21.78,17.36-2.11,32.1,12.89,28.84,28.86C490.92,308.81,480.79,316.34,463.93,315.69Z"
    transform="translate(-1.4 -0.21)"/>
  <path
    class="main-logo-details-svg{% if override_color %}'-override'{% endif %}"
    d="M1407.51,307.67c-4.35,0-8.7.12-13,0a29.52,29.52,0,0,1-21.86-10.23c-4.67-5.19-5.33-9.86-1.25-15.43,4.68-6.39,10.41-11,19-11.44,18.54-.92,36.95-2.07,54.86,4.89,13.6,5.29,14.32,7.88,5.26,19.15-8,10-19,12.11-30.56,13-4.12.29-8.29,0-12.43,0Z"
    transform="translate(-1.4 -0.21)"/>
  <path
    class="main-logo-details-svg{% if override_color %}'-override'{% endif %}"
    d="M654.4,313.65c-7.17-1.18-14.55-1.64-21.47-3.68-13-3.82-15.15-13.66-5.28-23.09,10.63-10.16,23.9-13.75,38.24-15.34,11.53-1.27,20.9,1.79,29.23,9.58,9.09,8.5,7.75,19.7-3.59,24.91C679.84,311.41,667.25,312.63,654.4,313.65Z"
    transform="translate(-1.4 -0.21)"/>
  <path
    class="main-logo-details-svg{% if override_color %}'-override'{% endif %}"
    d="M567.07,312.63c-9.48.27-18.58-1.28-26.87-6-9.77-5.55-11-13.8-3.17-21.83,6.2-6.36,13.44-10.94,22.67-11.68a20.52,20.52,0,0,0,6.16-1.85c10.95-4.57,21.41-3,31.12,3.09,9.42,5.88,11.09,16.19,4.5,25.11-5.16,7-11.83,11.54-20.82,12.07C576.13,311.81,571.6,312.26,567.07,312.63Z"
    transform="translate(-1.4 -0.21)"/>
  <path
    class="main-logo-details-svg{% if override_color %}'-override'{% endif %}"
    d="M1288.68,271.06c13.51-1.29,26.24,2.17,38.52,7.19,10.33,4.22,11.09,9.47,2.93,17s-17.07,12.82-28.73,11.45c-10.94-1.29-22.07-1.7-32.76-4.08-5.83-1.3-11.16-5.56-16.29-9.1-4.48-3.09-3.93-7.21-.72-11.27,6.46-8.17,15.5-10.46,25.19-11.14C1280.76,270.83,1284.72,271.06,1288.68,271.06Z"
    transform="translate(-1.4 -0.21)"/>
  <path
    class="main-logo-details-svg{% if override_color %}'-override'{% endif %}"
    d="M1085.18,1274.56c16,.12,25.83,7.59,29.73,21.08,3.42,11.82-1.85,28.36-12,34.09a27.48,27.48,0,0,1-15.11,3c-10.84-1-20.74-4.84-27.7-14-6.65-8.77-8.62-18-3.38-28.2.58-1.13,1.4-2.88.94-3.68-3-5.33.54-6.88,4.48-7.73C1070.37,1277.26,1078.69,1275.81,1085.18,1274.56Z"
    transform="translate(-1.4 -0.21)"/>
  <path
    class="main-logo-details-svg{% if override_color %}'-override'{% endif %}"
    d="M905.1,1883.68c0,21.8-15.07,34.79-35.1,31.87-12.4-1.81-21.06-12.85-20.12-27.28.44-6.74,2.69-13.45,4.71-20,1.28-4.12,5.17-7.23,4.13-12.46-.21-1,3.57-3.63,5.85-4.26,8.95-2.46,16.91,1.1,24.5,5.25a29.76,29.76,0,0,1,15.43,21.38A53.31,53.31,0,0,1,905.1,1883.68Z"
    transform="translate(-1.4 -0.21)"/>
  <path
    class="main-logo-details-svg{% if override_color %}'-override'{% endif %}"
    d="M1305.31,1367.53c-.53,16.42-2.86,27.7-9.47,37.75-2.91,4.44-6.54,8.26-12.51,7.18-5.78-1-8.25-6-8.69-10.79-.73-8.15-1.74-16.88.39-24.53,3.3-11.82,9-23,14.08-34.26,1-2.17,4-3.42,6.11-5.1,1.32,2,3.23,3.92,3.88,6.16C1301.74,1353.16,1304,1362.48,1305.31,1367.53Z"
    transform="translate(-1.4 -0.21)"/>
  <path
    class="main-logo-details-svg{% if override_color %}'-override'{% endif %}"
    d="M1468.21,1409.47c-5.19-2.13-10.8-3.59-15.46-6.55-5.18-3.3-5.16-8.18-.72-12.51a22.2,22.2,0,0,1,7.29-4.92c10.15-3.82,20.33-7.68,30.76-10.59,3.32-.93,7.75.34,11.12,1.84,4.21,1.87,5.58,7.51,2.33,10.53-9.39,8.7-19.13,17.13-31.88,20.78a15.06,15.06,0,0,1-3,.25Z"
    transform="translate(-1.4 -0.21)"/>
</svg>
